<mxfile host="65bd71144e">
    <diagram id="A5jJNlO35p3FgbAEiNrJ" name="Page-1">
        <mxGraphModel dx="1618" dy="2763" grid="1" gridSize="10" guides="1" tooltips="1" connect="1" arrows="1" fold="1" page="1" pageScale="1" pageWidth="850" pageHeight="1100" math="0" shadow="0">
            <root>
                <mxCell id="0"/>
                <mxCell id="1" parent="0"/>
                <mxCell id="2" value="Filial" style="swimlane;childLayout=stackLayout;horizontal=1;startSize=50;horizontalStack=0;rounded=1;fontSize=14;fontStyle=0;strokeWidth=2;resizeParent=0;resizeLast=1;shadow=0;dashed=0;align=center;arcSize=4;whiteSpace=wrap;html=1;" vertex="1" parent="1">
                    <mxGeometry x="557" y="-290" width="270" height="190" as="geometry"/>
                </mxCell>
                <mxCell id="3" value="ID_FILIAL INT PK&amp;nbsp; NOT NULL AUTO INCREMENT&lt;div&gt;NOME FILIAL VARCHAR (50) NOT NULL&lt;/div&gt;&lt;div&gt;ENDEREÇO FILIAL VARCHAR(100) NOT NULL&lt;/div&gt;&lt;div&gt;FONE FILIAL BIGINT NOT NULL&lt;/div&gt;&lt;div&gt;CNPJ FILIAL INT NOT NULL&lt;/div&gt;&lt;div&gt;&lt;br&gt;&lt;/div&gt;" style="align=left;strokeColor=none;fillColor=none;spacingLeft=4;fontSize=12;verticalAlign=top;resizable=0;rotatable=0;part=1;html=1;" vertex="1" parent="2">
                    <mxGeometry y="50" width="270" height="140" as="geometry"/>
                </mxCell>
                <mxCell id="4" value="Serviço" style="swimlane;childLayout=stackLayout;horizontal=1;startSize=50;horizontalStack=0;rounded=1;fontSize=14;fontStyle=0;strokeWidth=2;resizeParent=0;resizeLast=1;shadow=0;dashed=0;align=center;arcSize=4;whiteSpace=wrap;html=1;" vertex="1" parent="1">
                    <mxGeometry x="-40" y="-980" width="290" height="120" as="geometry"/>
                </mxCell>
                <mxCell id="5" value="id serviço PK INT NOT NULL AUTO INCREMENT&lt;div&gt;&lt;div&gt;desc serviço&amp;nbsp; VARCHAR (1000) NOT NULL&lt;/div&gt;&lt;div&gt;valor FLOAT NOT NULL&lt;/div&gt;&lt;/div&gt;" style="align=left;strokeColor=none;fillColor=none;spacingLeft=4;fontSize=12;verticalAlign=top;resizable=0;rotatable=0;part=1;html=1;" vertex="1" parent="4">
                    <mxGeometry y="50" width="290" height="70" as="geometry"/>
                </mxCell>
                <mxCell id="6" value="Status" style="swimlane;childLayout=stackLayout;horizontal=1;startSize=50;horizontalStack=0;rounded=1;fontSize=14;fontStyle=0;strokeWidth=2;resizeParent=0;resizeLast=1;shadow=0;dashed=0;align=center;arcSize=4;whiteSpace=wrap;html=1;" vertex="1" parent="1">
                    <mxGeometry x="-450" y="-1169" width="280" height="120" as="geometry"/>
                </mxCell>
                <mxCell id="7" value="id status PK INT NOT NULL AUTO INCREMENT&lt;div&gt;desc status VARCHAR (1000) NOT NULL&lt;/div&gt;" style="align=left;strokeColor=none;fillColor=none;spacingLeft=4;fontSize=12;verticalAlign=top;resizable=0;rotatable=0;part=1;html=1;" vertex="1" parent="6">
                    <mxGeometry y="50" width="280" height="70" as="geometry"/>
                </mxCell>
                <mxCell id="8" value="Tipo atendimento" style="swimlane;childLayout=stackLayout;horizontal=1;startSize=50;horizontalStack=0;rounded=1;fontSize=14;fontStyle=0;strokeWidth=2;resizeParent=0;resizeLast=1;shadow=0;dashed=0;align=center;arcSize=4;whiteSpace=wrap;html=1;" vertex="1" parent="1">
                    <mxGeometry y="-752" width="300" height="120" as="geometry"/>
                </mxCell>
                <mxCell id="9" value="id tipo atend INT PK NOT NULL AUTO INCREMENT&lt;div&gt;desc tipo atendimento VARCHAR (100) NOT NULL&lt;/div&gt;&lt;div&gt;&lt;br&gt;&lt;/div&gt;" style="align=left;strokeColor=none;fillColor=none;spacingLeft=4;fontSize=12;verticalAlign=top;resizable=0;rotatable=0;part=1;html=1;" vertex="1" parent="8">
                    <mxGeometry y="50" width="300" height="70" as="geometry"/>
                </mxCell>
                <mxCell id="10" value="OS serviço" style="swimlane;childLayout=stackLayout;horizontal=1;startSize=50;horizontalStack=0;rounded=1;fontSize=14;fontStyle=0;strokeWidth=2;resizeParent=0;resizeLast=1;shadow=0;dashed=0;align=center;arcSize=4;whiteSpace=wrap;html=1;" vertex="1" parent="1">
                    <mxGeometry x="-30" y="-1160" width="300" height="140" as="geometry"/>
                </mxCell>
                <mxCell id="11" value="id registro&amp;nbsp; FK INT NOT NULL&amp;nbsp;&lt;div&gt;id os serviço PK INT NOT NULL AUTO INCREMENT&lt;/div&gt;&lt;div&gt;descrição CHAR (1000)&amp;nbsp;&lt;span style=&quot;white-space: pre;&quot;&gt;&#9;&lt;/span&gt;NOT NULL&lt;/div&gt;&lt;div&gt;valor unit FLOAT NOT NULL&lt;/div&gt;&lt;div&gt;qtde INT NOT NULL&lt;/div&gt;" style="align=left;strokeColor=none;fillColor=none;spacingLeft=4;fontSize=12;verticalAlign=top;resizable=0;rotatable=0;part=1;html=1;" vertex="1" parent="10">
                    <mxGeometry y="50" width="300" height="90" as="geometry"/>
                </mxCell>
                <mxCell id="12" value="Funcionário" style="swimlane;childLayout=stackLayout;horizontal=1;startSize=50;horizontalStack=0;rounded=1;fontSize=14;fontStyle=0;strokeWidth=2;resizeParent=0;resizeLast=1;shadow=0;dashed=0;align=center;arcSize=4;whiteSpace=wrap;html=1;" vertex="1" parent="1">
                    <mxGeometry x="530" y="60" width="305" height="190" as="geometry"/>
                </mxCell>
                <mxCell id="13" value="id funcionário O INCREMENT&lt;div&gt;nome funcionário VARCHAR (100) NOT NULL&lt;/div&gt;&lt;div&gt;data admissão DATE NOT NULL&lt;/div&gt;&lt;div&gt;data demissão DATE NULL&lt;/div&gt;&lt;div&gt;dept VARCHAR (50) NOT NULL&lt;/div&gt;&lt;div&gt;função VARCHAR (50) NOT NULL&lt;/div&gt;&lt;div&gt;id status&amp;nbsp; INT FK NOT NULL&lt;/div&gt;&lt;div&gt;senha INT NOT NULL&lt;/div&gt;&lt;div&gt;id filial INT FK NOT NULL&lt;/div&gt;" style="align=left;strokeColor=none;fillColor=none;spacingLeft=4;fontSize=12;verticalAlign=top;resizable=0;rotatable=0;part=1;html=1;" vertex="1" parent="12">
                    <mxGeometry y="50" width="305" height="140" as="geometry"/>
                </mxCell>
                <mxCell id="14" value="OS" style="swimlane;childLayout=stackLayout;horizontal=1;startSize=50;horizontalStack=0;rounded=1;fontSize=14;fontStyle=0;strokeWidth=2;resizeParent=0;resizeLast=1;shadow=0;dashed=0;align=center;arcSize=4;whiteSpace=wrap;html=1;" vertex="1" parent="1">
                    <mxGeometry x="-10" y="-500" width="280" height="570" as="geometry"/>
                </mxCell>
                <mxCell id="15" value="id OS INT PK NOT NULL AUTO INCREMENT&lt;div&gt;id cliente INT FK NOT NULL&amp;nbsp;&lt;/div&gt;&lt;div&gt;id tipo atend&amp;nbsp; INT FK NOT NULL&amp;nbsp;&lt;/div&gt;&lt;div&gt;id endereço busca INT FK NOT NULL&lt;/div&gt;&lt;div&gt;id endereço entrega INT FK NOT NULL&lt;/div&gt;&lt;div&gt;data abertura&amp;nbsp; DATE NOT NULL&lt;/div&gt;&lt;div&gt;id atendente&amp;nbsp; INT FK NOT NULL&lt;/div&gt;&lt;div&gt;id tipo prod&amp;nbsp; INT FK NOT NULL&lt;/div&gt;&lt;div&gt;id marca&amp;nbsp; INT FK NOT NULL&lt;/div&gt;&lt;div&gt;id modelo INT FK NOT NULL&lt;/div&gt;&lt;div&gt;acessórios VARCHAR NOT NULL&lt;/div&gt;&lt;div&gt;série&amp;nbsp; INT NOT NULL&lt;/div&gt;&lt;div&gt;id status&amp;nbsp; INT FK NOT NULL&lt;/div&gt;&lt;div&gt;desc prob VARCHAR (1000) NOT NULL&lt;/div&gt;&lt;div&gt;especificação VARCHAR (100) NOT NULL&lt;/div&gt;&lt;div&gt;dt compra DATE NOT NULL&lt;/div&gt;&lt;div&gt;dt fechamento DATE&amp;nbsp; NULL&lt;/div&gt;&lt;div&gt;id tecnico INT FK NOT NULL&lt;/div&gt;&lt;div&gt;desc serv&amp;nbsp; VARCHAR (100) NOT NULL&lt;/div&gt;&lt;div&gt;valor MO FLOAT NOT NULL&lt;/div&gt;&lt;div&gt;valor peça FLOAT NOT NULL&amp;nbsp;&lt;/div&gt;&lt;div&gt;valor desc FLOAT NOT NULL&lt;/div&gt;&lt;div&gt;valor tot&amp;nbsp; FLOAT NOT NULL&lt;/div&gt;&lt;div&gt;id filial INT FK NOT NULL&lt;/div&gt;&lt;div&gt;observações&amp;nbsp; VARCHAR (100) NOT NULL&lt;/div&gt;&lt;div&gt;dt oficina INT FK NOT NULL&lt;/div&gt;&lt;div&gt;id foma pgto INT FK NOT NULL&lt;/div&gt;&lt;div&gt;id plano pgto&amp;nbsp; INT FK NOT NULL&lt;/div&gt;&lt;div&gt;obs fechamento&amp;nbsp; VARCHAR (100) NULL&lt;/div&gt;&lt;div&gt;id fechador INT FK NOT NULL&amp;nbsp;&lt;/div&gt;&lt;div&gt;contato INT NOT NULL&lt;/div&gt;&lt;div&gt;dt garantia DATE NOT NULL&lt;/div&gt;&lt;div&gt;dt exclusão DATE NULL&lt;/div&gt;&lt;div&gt;id exclusão INT FK NOT NULL&lt;/div&gt;&lt;div&gt;número OS INT NOT NULL&lt;/div&gt;" style="align=left;strokeColor=none;fillColor=none;spacingLeft=4;fontSize=12;verticalAlign=top;resizable=0;rotatable=0;part=1;html=1;" vertex="1" parent="14">
                    <mxGeometry y="50" width="280" height="520" as="geometry"/>
                </mxCell>
                <mxCell id="16" value="Acessório" style="swimlane;childLayout=stackLayout;horizontal=1;startSize=50;horizontalStack=0;rounded=1;fontSize=14;fontStyle=0;strokeWidth=2;resizeParent=0;resizeLast=1;shadow=0;dashed=0;align=center;arcSize=4;whiteSpace=wrap;html=1;" vertex="1" parent="1">
                    <mxGeometry x="-385" y="-392" width="300" height="120" as="geometry"/>
                </mxCell>
                <mxCell id="17" value="id acessório (INT PK NOT NULL&amp;nbsp; AUTO INCREMENT)&lt;div&gt;desc acessório ( VARCHAR (1000) NOT NULL)&lt;/div&gt;&lt;div&gt;&lt;br&gt;&lt;/div&gt;" style="align=left;strokeColor=none;fillColor=none;spacingLeft=4;fontSize=12;verticalAlign=top;resizable=0;rotatable=0;part=1;html=1;" vertex="1" parent="16">
                    <mxGeometry y="50" width="300" height="70" as="geometry"/>
                </mxCell>
                <mxCell id="18" value="Forma Pgto" style="swimlane;childLayout=stackLayout;horizontal=1;startSize=50;horizontalStack=0;rounded=1;fontSize=14;fontStyle=0;strokeWidth=2;resizeParent=0;resizeLast=1;shadow=0;dashed=0;align=center;arcSize=4;whiteSpace=wrap;html=1;" vertex="1" parent="1">
                    <mxGeometry x="-450" y="-920" width="300" height="120" as="geometry"/>
                </mxCell>
                <mxCell id="19" value="id forma pgto PK INT NOT NULL AUTO INCREMENT&lt;div&gt;desc forma pgto VARCHAR (100) NOT NULL&lt;/div&gt;" style="align=left;strokeColor=none;fillColor=none;spacingLeft=4;fontSize=12;verticalAlign=top;resizable=0;rotatable=0;part=1;html=1;" vertex="1" parent="18">
                    <mxGeometry y="50" width="300" height="70" as="geometry"/>
                </mxCell>
                <mxCell id="20" value="Plano Pgto" style="swimlane;childLayout=stackLayout;horizontal=1;startSize=50;horizontalStack=0;rounded=1;fontSize=14;fontStyle=0;strokeWidth=2;resizeParent=0;resizeLast=1;shadow=0;dashed=0;align=center;arcSize=4;whiteSpace=wrap;html=1;" vertex="1" parent="1">
                    <mxGeometry x="-470" y="-710" width="300" height="120" as="geometry"/>
                </mxCell>
                <mxCell id="21" value="id plano pgto INT PK NOT NULL AUTO INCREMENT&lt;div&gt;desc plano pgto VARCHAR (100) NOT NULL&lt;span style=&quot;background-color: initial;&quot;&gt;&amp;nbsp;&lt;/span&gt;&lt;/div&gt;&lt;div&gt;juros FLOAT NOT NULL&lt;/div&gt;" style="align=left;strokeColor=none;fillColor=none;spacingLeft=4;fontSize=12;verticalAlign=top;resizable=0;rotatable=0;part=1;html=1;" vertex="1" parent="20">
                    <mxGeometry y="50" width="300" height="70" as="geometry"/>
                </mxCell>
                <mxCell id="22" value="Marca" style="swimlane;childLayout=stackLayout;horizontal=1;startSize=50;horizontalStack=0;rounded=1;fontSize=14;fontStyle=0;strokeWidth=2;resizeParent=0;resizeLast=1;shadow=0;dashed=0;align=center;arcSize=4;whiteSpace=wrap;html=1;" vertex="1" parent="1">
                    <mxGeometry x="195" y="380" width="270" height="120" as="geometry"/>
                </mxCell>
                <mxCell id="23" value="id marca INT PK NOT NULL AUTO INCREMENT&lt;div&gt;desc marca&amp;nbsp; VARCHAR (100) NOT NULL&lt;/div&gt;&lt;div&gt;principal&amp;nbsp; VARCHAR (100) NOT NULL&lt;/div&gt;" style="align=left;strokeColor=none;fillColor=none;spacingLeft=4;fontSize=12;verticalAlign=top;resizable=0;rotatable=0;part=1;html=1;" vertex="1" parent="22">
                    <mxGeometry y="50" width="270" height="70" as="geometry"/>
                </mxCell>
                <mxCell id="24" value="Tipo Produto" style="swimlane;childLayout=stackLayout;horizontal=1;startSize=50;horizontalStack=0;rounded=1;fontSize=14;fontStyle=0;strokeWidth=2;resizeParent=0;resizeLast=1;shadow=0;dashed=0;align=center;arcSize=4;whiteSpace=wrap;html=1;" vertex="1" parent="1">
                    <mxGeometry x="-235" y="840" width="300" height="120" as="geometry"/>
                </mxCell>
                <mxCell id="25" value="id tipo produto INT PK NOT NULL AUTO INCREMENT&lt;div&gt;desc tipo produto VARCHAR (100) NOT NULL&lt;/div&gt;&lt;div&gt;principal VARCHAR (100) NOT NULL&lt;/div&gt;" style="align=left;strokeColor=none;fillColor=none;spacingLeft=4;fontSize=12;verticalAlign=top;resizable=0;rotatable=0;part=1;html=1;" vertex="1" parent="24">
                    <mxGeometry y="50" width="300" height="70" as="geometry"/>
                </mxCell>
                <mxCell id="26" value="Email" style="swimlane;childLayout=stackLayout;horizontal=1;startSize=50;horizontalStack=0;rounded=1;fontSize=14;fontStyle=0;strokeWidth=2;resizeParent=0;resizeLast=1;shadow=0;dashed=0;align=center;arcSize=4;whiteSpace=wrap;html=1;" vertex="1" parent="1">
                    <mxGeometry x="-580" y="-90" width="270" height="120" as="geometry"/>
                </mxCell>
                <mxCell id="27" value="id cliente INT PK NOT NULL AUTO INCREMENT&amp;nbsp;&lt;div&gt;id email INT FK NOT NULL&lt;/div&gt;&lt;div&gt;tipo email VARCHAR (100) NOT NULL&lt;br&gt;&lt;/div&gt;" style="align=left;strokeColor=none;fillColor=none;spacingLeft=4;fontSize=12;verticalAlign=top;resizable=0;rotatable=0;part=1;html=1;" vertex="1" parent="26">
                    <mxGeometry y="50" width="270" height="70" as="geometry"/>
                </mxCell>
                <mxCell id="28" value="Fone" style="swimlane;childLayout=stackLayout;horizontal=1;startSize=50;horizontalStack=0;rounded=1;fontSize=14;fontStyle=0;strokeWidth=2;resizeParent=0;resizeLast=1;shadow=0;dashed=0;align=center;arcSize=4;whiteSpace=wrap;html=1;" vertex="1" parent="1">
                    <mxGeometry x="-570" y="370" width="260" height="130" as="geometry"/>
                </mxCell>
                <mxCell id="29" value="id cliente INT FK NOT NULL&amp;nbsp;&lt;div&gt;id fone INT PK NOT NULL AUTO INCREMENT&lt;/div&gt;&lt;div&gt;tipo fone&amp;nbsp; VARCHAR (50) NOT NULL&lt;/div&gt;&lt;div&gt;nmro INT NOT NULL&lt;/div&gt;&lt;div&gt;contato VARCHAR (50) NOT NULL&lt;/div&gt;" style="align=left;strokeColor=none;fillColor=none;spacingLeft=4;fontSize=12;verticalAlign=top;resizable=0;rotatable=0;part=1;html=1;" vertex="1" parent="28">
                    <mxGeometry y="50" width="260" height="80" as="geometry"/>
                </mxCell>
                <mxCell id="30" value="Produto" style="swimlane;childLayout=stackLayout;horizontal=1;startSize=50;horizontalStack=0;rounded=1;fontSize=14;fontStyle=0;strokeWidth=2;resizeParent=0;resizeLast=1;shadow=0;dashed=0;align=center;arcSize=4;whiteSpace=wrap;html=1;" vertex="1" parent="1">
                    <mxGeometry x="190" y="640" width="280" height="260" as="geometry"/>
                </mxCell>
                <mxCell id="31" value="id produto&amp;nbsp; INT PK NOT NULL AUTO INCREMENT&lt;div&gt;obs produto&amp;nbsp; VARCHAR (100) NOT NULL&lt;/div&gt;&lt;div&gt;vl custo&amp;nbsp; FLOAT NOT NULL&lt;/div&gt;&lt;div&gt;vl venda&amp;nbsp; FLOAT NOT NULL&lt;/div&gt;&lt;div&gt;dt cadastro&amp;nbsp; DATE NOT NULL&lt;/div&gt;&lt;div&gt;id tipo produto INT FK NOT NULL&lt;/div&gt;&lt;div&gt;id categoria INT FK NOT NULL&lt;/div&gt;&lt;div&gt;qt minima INT NOT NULL&lt;/div&gt;&lt;div&gt;qt estoque&amp;nbsp; INT NOT NULL&lt;/div&gt;&lt;div&gt;fl Balcão INT NOT NULL&lt;/div&gt;&lt;div&gt;fl ativo&amp;nbsp; INT NOT NULL&lt;/div&gt;&lt;div&gt;código&amp;nbsp; INT NOT NULL&lt;/div&gt;&lt;div&gt;unidade VARCHAR (50) NOT NULL&lt;/div&gt;&lt;div&gt;id filial&amp;nbsp; INT FK NOT NULL&lt;/div&gt;" style="align=left;strokeColor=none;fillColor=none;spacingLeft=4;fontSize=12;verticalAlign=top;resizable=0;rotatable=0;part=1;html=1;" vertex="1" parent="30">
                    <mxGeometry y="50" width="280" height="210" as="geometry"/>
                </mxCell>
                <mxCell id="32" value="Cliente" style="swimlane;childLayout=stackLayout;horizontal=1;startSize=50;horizontalStack=0;rounded=1;fontSize=14;fontStyle=0;strokeWidth=2;resizeParent=0;resizeLast=1;shadow=0;dashed=0;align=center;arcSize=4;whiteSpace=wrap;html=1;" vertex="1" parent="1">
                    <mxGeometry x="-240" y="90" width="260" height="200" as="geometry"/>
                </mxCell>
                <mxCell id="33" value="id cliente INT PK NOT NULL&lt;div&gt;nome cliente VARCHAR (100) NOT NULL&lt;/div&gt;&lt;div&gt;dt cad DATE NOT NULL&lt;/div&gt;&lt;div&gt;cpf CHAR (15) NOT NULL&lt;/div&gt;&lt;div&gt;cnpj CHAR (14) NOT NULL&lt;/div&gt;&lt;div&gt;insc mun&amp;nbsp; CHAR (15) NOT NULL&lt;/div&gt;&lt;div&gt;id status INT FK NOT NULL&lt;/div&gt;&lt;div&gt;id filial INT FK NOT NULL&lt;/div&gt;&lt;div&gt;dt atualização DATE NOT NULL&lt;/div&gt;" style="align=left;strokeColor=none;fillColor=none;spacingLeft=4;fontSize=12;verticalAlign=top;resizable=0;rotatable=0;part=1;html=1;" vertex="1" parent="32">
                    <mxGeometry y="50" width="260" height="150" as="geometry"/>
                </mxCell>
                <mxCell id="34" value="Categoria" style="swimlane;childLayout=stackLayout;horizontal=1;startSize=50;horizontalStack=0;rounded=1;fontSize=14;fontStyle=0;strokeWidth=2;resizeParent=0;resizeLast=1;shadow=0;dashed=0;align=center;arcSize=4;whiteSpace=wrap;html=1;" vertex="1" parent="1">
                    <mxGeometry x="-425" y="620" width="290" height="120" as="geometry"/>
                </mxCell>
                <mxCell id="35" value="id categoria INT PK NOT NULL&lt;div&gt;ds categoria VARCHAR (100) NOT NULL&lt;/div&gt;&lt;div&gt;&lt;br&gt;&lt;/div&gt;" style="align=left;strokeColor=none;fillColor=none;spacingLeft=4;fontSize=12;verticalAlign=top;resizable=0;rotatable=0;part=1;html=1;" vertex="1" parent="34">
                    <mxGeometry y="50" width="290" height="70" as="geometry"/>
                </mxCell>
                <mxCell id="36" value="Modelo" style="swimlane;childLayout=stackLayout;horizontal=1;startSize=50;horizontalStack=0;rounded=1;fontSize=14;fontStyle=0;strokeWidth=2;resizeParent=0;resizeLast=1;shadow=0;dashed=0;align=center;arcSize=4;whiteSpace=wrap;html=1;" vertex="1" parent="1">
                    <mxGeometry x="570" y="570" width="280" height="120" as="geometry"/>
                </mxCell>
                <mxCell id="37" value="id modelo INT PK NOT NULL AUTO INCREMENT&lt;div&gt;id marca INT FK NOT NULL&lt;/div&gt;&lt;div&gt;desc modelo VARCHAR (100) NOT NULL&lt;/div&gt;&lt;div&gt;id tipo produto&amp;nbsp; INT FK NOT NULL&lt;/div&gt;" style="align=left;strokeColor=none;fillColor=none;spacingLeft=4;fontSize=12;verticalAlign=top;resizable=0;rotatable=0;part=1;html=1;" vertex="1" parent="36">
                    <mxGeometry y="50" width="280" height="70" as="geometry"/>
                </mxCell>
                <mxCell id="38" value="Endereço" style="swimlane;childLayout=stackLayout;horizontal=1;startSize=50;horizontalStack=0;rounded=1;fontSize=14;fontStyle=0;strokeWidth=2;resizeParent=0;resizeLast=1;shadow=0;dashed=0;align=center;arcSize=4;whiteSpace=wrap;html=1;" vertex="1" parent="1">
                    <mxGeometry x="-225" y="370" width="230" height="200" as="geometry"/>
                </mxCell>
                <mxCell id="39" value="id cliente INT FK NOT NULL&lt;div&gt;id endereço INT PK NOT NULL&lt;/div&gt;&lt;div&gt;tipo endereço VARCHAR (50) NOT NULL&lt;/div&gt;&lt;div&gt;endereço VARCHAR (100) NOT NULL&lt;/div&gt;&lt;div&gt;complemento VARCHAR (50) NOT NULL&lt;/div&gt;&lt;div&gt;bairro VARCHAR (20) NOT NULL&lt;/div&gt;&lt;div&gt;cidade VARCHAR (50) NOT NULL&lt;/div&gt;&lt;div&gt;estado VARCHAR (50) NOT NULL&lt;/div&gt;&lt;div&gt;cep CHAR (10) NOT NULL&lt;/div&gt;&lt;div&gt;observação VARCHAR (100) NOT NULL&lt;/div&gt;" style="align=left;strokeColor=none;fillColor=none;spacingLeft=4;fontSize=12;verticalAlign=top;resizable=0;rotatable=0;part=1;html=1;" vertex="1" parent="38">
                    <mxGeometry y="50" width="230" height="150" as="geometry"/>
                </mxCell>
                <mxCell id="40" value="Busca" style="swimlane;childLayout=stackLayout;horizontal=1;startSize=50;horizontalStack=0;rounded=1;fontSize=14;fontStyle=0;strokeWidth=2;resizeParent=0;resizeLast=1;shadow=0;dashed=0;align=center;arcSize=4;whiteSpace=wrap;html=1;" vertex="1" parent="1">
                    <mxGeometry x="460" y="-750" width="290" height="120" as="geometry"/>
                </mxCell>
                <mxCell id="41" value="id busca INT PK NOT NULL&lt;div&gt;endereço busca VARCHAR (100) NOT NULL&lt;/div&gt;&lt;div&gt;dt da busca DATE NOT NULL&lt;/div&gt;" style="align=left;strokeColor=none;fillColor=none;spacingLeft=4;fontSize=12;verticalAlign=top;resizable=0;rotatable=0;part=1;html=1;" vertex="1" parent="40">
                    <mxGeometry y="50" width="290" height="70" as="geometry"/>
                </mxCell>
                <mxCell id="42" value="Entrega" style="swimlane;childLayout=stackLayout;horizontal=1;startSize=50;horizontalStack=0;rounded=1;fontSize=14;fontStyle=0;strokeWidth=2;resizeParent=0;resizeLast=1;shadow=0;dashed=0;align=center;arcSize=4;whiteSpace=wrap;html=1;" vertex="1" parent="1">
                    <mxGeometry x="500" y="-502" width="300" height="130" as="geometry"/>
                </mxCell>
                <mxCell id="43" value="id entrega INT PK NOT NULL&lt;div&gt;endereço de entrega VARCHAR (100) NOT NULL&lt;/div&gt;&lt;div&gt;dt de entrega&amp;nbsp; DATE NOT NULL&lt;/div&gt;" style="align=left;strokeColor=none;fillColor=none;spacingLeft=4;fontSize=12;verticalAlign=top;resizable=0;rotatable=0;part=1;html=1;" vertex="1" parent="42">
                    <mxGeometry y="50" width="300" height="80" as="geometry"/>
                </mxCell>
                <mxCell id="44" value="(1,1)" style="text;html=1;align=center;verticalAlign=middle;resizable=0;points=[];autosize=1;strokeColor=none;fillColor=none;" vertex="1" parent="1">
                    <mxGeometry x="510" y="440" width="50" height="30" as="geometry"/>
                </mxCell>
                <mxCell id="45" value="(n,1)" style="text;html=1;align=center;verticalAlign=middle;resizable=0;points=[];autosize=1;strokeColor=none;fillColor=none;" vertex="1" parent="1">
                    <mxGeometry x="372" y="120" width="50" height="30" as="geometry"/>
                </mxCell>
                <mxCell id="46" value="(1,1)" style="text;html=1;align=center;verticalAlign=middle;resizable=0;points=[];autosize=1;strokeColor=none;fillColor=none;" vertex="1" parent="1">
                    <mxGeometry x="422" y="-490" width="50" height="30" as="geometry"/>
                </mxCell>
                <mxCell id="47" value="(1,1)" style="text;html=1;align=center;verticalAlign=middle;resizable=0;points=[];autosize=1;strokeColor=none;fillColor=none;" vertex="1" parent="1">
                    <mxGeometry x="265" y="-520" width="50" height="30" as="geometry"/>
                </mxCell>
                <mxCell id="48" value="(1,1)" style="text;html=1;align=center;verticalAlign=middle;resizable=0;points=[];autosize=1;strokeColor=none;fillColor=none;" vertex="1" parent="1">
                    <mxGeometry x="415" y="-642" width="50" height="30" as="geometry"/>
                </mxCell>
                <mxCell id="49" value="(n,1)" style="text;html=1;align=center;verticalAlign=middle;resizable=0;points=[];autosize=1;strokeColor=none;fillColor=none;" vertex="1" parent="1">
                    <mxGeometry x="15" y="-532" width="50" height="30" as="geometry"/>
                </mxCell>
                <mxCell id="50" value="(1,n)" style="text;html=1;align=center;verticalAlign=middle;resizable=0;points=[];autosize=1;strokeColor=none;fillColor=none;" vertex="1" parent="1">
                    <mxGeometry x="85" y="-632" width="50" height="30" as="geometry"/>
                </mxCell>
                <mxCell id="51" value="(n,1)" style="text;html=1;align=center;verticalAlign=middle;resizable=0;points=[];autosize=1;strokeColor=none;fillColor=none;" vertex="1" parent="1">
                    <mxGeometry x="115" y="-792" width="50" height="30" as="geometry"/>
                </mxCell>
                <mxCell id="52" value="(n,1)" style="text;html=1;align=center;verticalAlign=middle;resizable=0;points=[];autosize=1;strokeColor=none;fillColor=none;" vertex="1" parent="1">
                    <mxGeometry x="115" y="-862" width="50" height="30" as="geometry"/>
                </mxCell>
                <mxCell id="53" value="(n,1)" style="text;html=1;align=center;verticalAlign=middle;resizable=0;points=[];autosize=1;strokeColor=none;fillColor=none;" vertex="1" parent="1">
                    <mxGeometry x="250" y="-980" width="50" height="30" as="geometry"/>
                </mxCell>
                <mxCell id="54" value="(n,1)" style="text;html=1;align=center;verticalAlign=middle;resizable=0;points=[];autosize=1;strokeColor=none;fillColor=none;" vertex="1" parent="1">
                    <mxGeometry x="265" y="-1115" width="50" height="30" as="geometry"/>
                </mxCell>
                <mxCell id="55" value="(1,1)" style="text;html=1;align=center;verticalAlign=middle;resizable=0;points=[];autosize=1;strokeColor=none;fillColor=none;" vertex="1" parent="1">
                    <mxGeometry x="-95" y="-392" width="50" height="30" as="geometry"/>
                </mxCell>
                <mxCell id="56" value="(1,1)" style="text;html=1;align=center;verticalAlign=middle;resizable=0;points=[];autosize=1;strokeColor=none;fillColor=none;" vertex="1" parent="1">
                    <mxGeometry x="-60" y="-132" width="50" height="30" as="geometry"/>
                </mxCell>
                <mxCell id="57" value="(n,1)" style="text;html=1;align=center;verticalAlign=middle;resizable=0;points=[];autosize=1;strokeColor=none;fillColor=none;" vertex="1" parent="1">
                    <mxGeometry x="-250" y="-50" width="50" height="30" as="geometry"/>
                </mxCell>
                <mxCell id="58" value="(n,1)" style="text;html=1;align=center;verticalAlign=middle;resizable=0;points=[];autosize=1;strokeColor=none;fillColor=none;" vertex="1" parent="1">
                    <mxGeometry x="-370" y="175" width="50" height="30" as="geometry"/>
                </mxCell>
                <mxCell id="59" value="(n,1)" style="text;html=1;align=center;verticalAlign=middle;resizable=0;points=[];autosize=1;strokeColor=none;fillColor=none;" vertex="1" parent="1">
                    <mxGeometry x="-45" y="-840" width="50" height="30" as="geometry"/>
                </mxCell>
                <mxCell id="60" value="(n,1)" style="text;html=1;align=center;verticalAlign=middle;resizable=0;points=[];autosize=1;strokeColor=none;fillColor=none;" vertex="1" parent="1">
                    <mxGeometry x="-160" y="-672" width="50" height="30" as="geometry"/>
                </mxCell>
                <mxCell id="61" value="(n,1)" style="text;html=1;align=center;verticalAlign=middle;resizable=0;points=[];autosize=1;strokeColor=none;fillColor=none;" vertex="1" parent="1">
                    <mxGeometry x="-155" y="-922" width="50" height="30" as="geometry"/>
                </mxCell>
                <mxCell id="62" value="(n,1)" style="text;html=1;align=center;verticalAlign=middle;resizable=0;points=[];autosize=1;strokeColor=none;fillColor=none;" vertex="1" parent="1">
                    <mxGeometry x="-135" y="-1090" width="50" height="30" as="geometry"/>
                </mxCell>
                <mxCell id="63" value="(n,1)" style="text;html=1;align=center;verticalAlign=middle;resizable=0;points=[];autosize=1;strokeColor=none;fillColor=none;" vertex="1" parent="1">
                    <mxGeometry x="-85" y="-1020" width="50" height="30" as="geometry"/>
                </mxCell>
                <mxCell id="64" value="(n,1)" style="text;html=1;align=center;verticalAlign=middle;resizable=0;points=[];autosize=1;strokeColor=none;fillColor=none;" vertex="1" parent="1">
                    <mxGeometry x="-70" y="320" width="50" height="30" as="geometry"/>
                </mxCell>
                <mxCell id="65" value="(1,1)" style="text;html=1;align=center;verticalAlign=middle;resizable=0;points=[];autosize=1;strokeColor=none;fillColor=none;" vertex="1" parent="1">
                    <mxGeometry x="30" y="700" width="50" height="30" as="geometry"/>
                </mxCell>
                <mxCell id="66" value="(1,1)" style="text;html=1;align=center;verticalAlign=middle;resizable=0;points=[];autosize=1;strokeColor=none;fillColor=none;" vertex="1" parent="1">
                    <mxGeometry x="110" y="810" width="50" height="30" as="geometry"/>
                </mxCell>
                <mxCell id="67" value="" style="endArrow=none;html=1;rounded=0;exitX=1;exitY=0.5;exitDx=0;exitDy=0;entryX=0.5;entryY=0;entryDx=0;entryDy=0;" edge="1" parent="1" source="27" target="32">
                    <mxGeometry relative="1" as="geometry">
                        <mxPoint x="-250" y="90" as="sourcePoint"/>
                        <mxPoint x="-90" y="90" as="targetPoint"/>
                        <Array as="points">
                            <mxPoint x="-110" y="-5"/>
                        </Array>
                    </mxGeometry>
                </mxCell>
                <mxCell id="68" value="" style="endArrow=none;html=1;rounded=0;exitX=0.5;exitY=1;exitDx=0;exitDy=0;entryX=0.5;entryY=0;entryDx=0;entryDy=0;" edge="1" parent="1" source="33" target="38">
                    <mxGeometry relative="1" as="geometry">
                        <mxPoint x="30" y="320" as="sourcePoint"/>
                        <mxPoint x="190" y="320" as="targetPoint"/>
                    </mxGeometry>
                </mxCell>
                <mxCell id="69" value="" style="endArrow=none;html=1;rounded=0;exitX=1;exitY=0.5;exitDx=0;exitDy=0;entryX=1;entryY=0.25;entryDx=0;entryDy=0;" edge="1" parent="1" source="11" target="5">
                    <mxGeometry relative="1" as="geometry">
                        <mxPoint x="30" y="-910" as="sourcePoint"/>
                        <mxPoint x="190" y="-910" as="targetPoint"/>
                        <Array as="points">
                            <mxPoint x="360" y="-1065"/>
                            <mxPoint x="360" y="-912"/>
                        </Array>
                    </mxGeometry>
                </mxCell>
                <mxCell id="70" value="" style="endArrow=none;html=1;rounded=0;entryX=0;entryY=0;entryDx=0;entryDy=0;exitX=1;exitY=0;exitDx=0;exitDy=0;" edge="1" parent="1" source="19" target="5">
                    <mxGeometry relative="1" as="geometry">
                        <mxPoint x="-210" y="-950" as="sourcePoint"/>
                        <mxPoint x="-50" y="-950" as="targetPoint"/>
                    </mxGeometry>
                </mxCell>
                <mxCell id="71" value="" style="endArrow=none;html=1;rounded=0;exitX=0.947;exitY=1.011;exitDx=0;exitDy=0;exitPerimeter=0;entryX=0;entryY=0.25;entryDx=0;entryDy=0;" edge="1" parent="1" source="7" target="4">
                    <mxGeometry relative="1" as="geometry">
                        <mxPoint x="-240" y="-981" as="sourcePoint"/>
                        <mxPoint x="-80" y="-981" as="targetPoint"/>
                        <Array as="points">
                            <mxPoint x="-130" y="-1048"/>
                        </Array>
                    </mxGeometry>
                </mxCell>
                <mxCell id="72" value="" style="endArrow=none;html=1;rounded=0;exitX=1;exitY=0.25;exitDx=0;exitDy=0;entryX=0;entryY=0.665;entryDx=0;entryDy=0;entryPerimeter=0;" edge="1" parent="1" source="21" target="5">
                    <mxGeometry relative="1" as="geometry">
                        <mxPoint x="30" y="-820" as="sourcePoint"/>
                        <mxPoint x="190" y="-820" as="targetPoint"/>
                        <Array as="points">
                            <mxPoint x="-80" y="-642"/>
                        </Array>
                    </mxGeometry>
                </mxCell>
                <mxCell id="73" value="" style="endArrow=none;html=1;rounded=0;exitX=0.75;exitY=1;exitDx=0;exitDy=0;entryX=0.5;entryY=0;entryDx=0;entryDy=0;" edge="1" parent="1" source="5" target="8">
                    <mxGeometry relative="1" as="geometry">
                        <mxPoint x="30" y="-820" as="sourcePoint"/>
                        <mxPoint x="190" y="-820" as="targetPoint"/>
                    </mxGeometry>
                </mxCell>
                <mxCell id="74" value="" style="endArrow=none;html=1;rounded=0;exitX=0.5;exitY=1;exitDx=0;exitDy=0;entryX=0.5;entryY=0;entryDx=0;entryDy=0;" edge="1" parent="1" source="9" target="14">
                    <mxGeometry relative="1" as="geometry">
                        <mxPoint x="-80" y="-570" as="sourcePoint"/>
                        <mxPoint x="80" y="-570" as="targetPoint"/>
                    </mxGeometry>
                </mxCell>
                <mxCell id="75" value="" style="endArrow=none;html=1;rounded=0;exitX=0.75;exitY=0;exitDx=0;exitDy=0;entryX=0.25;entryY=1;entryDx=0;entryDy=0;" edge="1" parent="1" source="14" target="41">
                    <mxGeometry relative="1" as="geometry">
                        <mxPoint x="470" y="-585" as="sourcePoint"/>
                        <mxPoint x="630" y="-585" as="targetPoint"/>
                    </mxGeometry>
                </mxCell>
                <mxCell id="76" value="" style="endArrow=none;html=1;rounded=0;exitX=1.004;exitY=0.106;exitDx=0;exitDy=0;entryX=-0.004;entryY=0.165;entryDx=0;entryDy=0;entryPerimeter=0;exitPerimeter=0;" edge="1" parent="1" source="15" target="43">
                    <mxGeometry relative="1" as="geometry">
                        <mxPoint x="280" y="-330" as="sourcePoint"/>
                        <mxPoint x="440" y="-330" as="targetPoint"/>
                        <Array as="points"/>
                    </mxGeometry>
                </mxCell>
                <mxCell id="77" value="" style="endArrow=none;html=1;rounded=0;exitX=0.5;exitY=1;exitDx=0;exitDy=0;" edge="1" parent="1" source="17" target="15">
                    <mxGeometry relative="1" as="geometry">
                        <mxPoint x="-80" y="-530" as="sourcePoint"/>
                        <mxPoint x="80" y="-530" as="targetPoint"/>
                        <Array as="points">
                            <mxPoint x="-235" y="-190"/>
                        </Array>
                    </mxGeometry>
                </mxCell>
                <mxCell id="78" value="" style="endArrow=none;html=1;rounded=0;exitX=0.5;exitY=1;exitDx=0;exitDy=0;entryX=0.543;entryY=-0.014;entryDx=0;entryDy=0;entryPerimeter=0;" edge="1" parent="1" source="3" target="12">
                    <mxGeometry relative="1" as="geometry">
                        <mxPoint x="620" y="-40" as="sourcePoint"/>
                        <mxPoint x="780" y="-40" as="targetPoint"/>
                    </mxGeometry>
                </mxCell>
                <mxCell id="79" value="" style="endArrow=none;html=1;rounded=0;exitX=1;exitY=0.5;exitDx=0;exitDy=0;entryX=0;entryY=0;entryDx=0;entryDy=0;" edge="1" parent="1" source="35">
                    <mxGeometry relative="1" as="geometry">
                        <mxPoint x="-122.5" y="790" as="sourcePoint"/>
                        <mxPoint x="202.5" y="792.5" as="targetPoint"/>
                    </mxGeometry>
                </mxCell>
                <mxCell id="80" value="" style="endArrow=none;html=1;rounded=0;exitX=1;exitY=0.5;exitDx=0;exitDy=0;entryX=0;entryY=0.75;entryDx=0;entryDy=0;" edge="1" parent="1" source="24" target="31">
                    <mxGeometry relative="1" as="geometry">
                        <mxPoint x="-80" y="780" as="sourcePoint"/>
                        <mxPoint x="80" y="780" as="targetPoint"/>
                        <Array as="points">
                            <mxPoint x="130" y="860"/>
                        </Array>
                    </mxGeometry>
                </mxCell>
                <mxCell id="81" value="" style="endArrow=none;html=1;rounded=0;entryX=0;entryY=0.5;entryDx=0;entryDy=0;exitX=0.5;exitY=0;exitDx=0;exitDy=0;" edge="1" parent="1" source="28" target="33">
                    <mxGeometry relative="1" as="geometry">
                        <mxPoint x="-530" y="285" as="sourcePoint"/>
                        <mxPoint x="-370" y="285" as="targetPoint"/>
                        <Array as="points">
                            <mxPoint x="-440" y="215"/>
                        </Array>
                    </mxGeometry>
                </mxCell>
                <mxCell id="82" value="" style="endArrow=none;html=1;rounded=0;exitX=0.5;exitY=1;exitDx=0;exitDy=0;" edge="1" parent="1" source="15" target="12">
                    <mxGeometry relative="1" as="geometry">
                        <mxPoint x="290" y="-60" as="sourcePoint"/>
                        <mxPoint x="450" y="-60" as="targetPoint"/>
                        <Array as="points">
                            <mxPoint x="130" y="150"/>
                        </Array>
                    </mxGeometry>
                </mxCell>
                <mxCell id="83" value="" style="endArrow=none;html=1;rounded=0;entryX=0.004;entryY=0.553;entryDx=0;entryDy=0;entryPerimeter=0;exitX=1.001;exitY=0.562;exitDx=0;exitDy=0;exitPerimeter=0;" edge="1" parent="1" source="15" target="3">
                    <mxGeometry relative="1" as="geometry">
                        <mxPoint x="260" y="20" as="sourcePoint"/>
                        <mxPoint x="420" y="20" as="targetPoint"/>
                    </mxGeometry>
                </mxCell>
                <mxCell id="84" value="(1,n)" style="text;html=1;align=center;verticalAlign=middle;resizable=0;points=[];autosize=1;strokeColor=none;fillColor=none;" vertex="1" parent="1">
                    <mxGeometry x="700" y="-100" width="50" height="30" as="geometry"/>
                </mxCell>
                <mxCell id="85" value="" style="endArrow=none;html=1;rounded=0;exitX=1;exitY=0.25;exitDx=0;exitDy=0;entryX=0.282;entryY=-0.042;entryDx=0;entryDy=0;entryPerimeter=0;" edge="1" parent="1" source="23" target="36">
                    <mxGeometry width="50" height="50" relative="1" as="geometry">
                        <mxPoint x="550" y="570" as="sourcePoint"/>
                        <mxPoint x="600" y="520" as="targetPoint"/>
                    </mxGeometry>
                </mxCell>
                <mxCell id="86" value="(n,1)" style="text;html=1;align=center;verticalAlign=middle;resizable=0;points=[];autosize=1;strokeColor=none;fillColor=none;" vertex="1" parent="1">
                    <mxGeometry x="430" y="-200" width="50" height="30" as="geometry"/>
                </mxCell>
                <mxCell id="87" value="" style="endArrow=none;html=1;rounded=0;exitX=0.5;exitY=1;exitDx=0;exitDy=0;entryX=0.5;entryY=0;entryDx=0;entryDy=0;" edge="1" parent="1" source="23" target="30">
                    <mxGeometry relative="1" as="geometry">
                        <mxPoint x="10" y="660" as="sourcePoint"/>
                        <mxPoint x="170" y="660" as="targetPoint"/>
                    </mxGeometry>
                </mxCell>
                <mxCell id="88" value="(1,1)" style="text;html=1;align=center;verticalAlign=middle;resizable=0;points=[];autosize=1;strokeColor=none;fillColor=none;" vertex="1" parent="1">
                    <mxGeometry x="340" y="554.5" width="50" height="30" as="geometry"/>
                </mxCell>
            </root>
        </mxGraphModel>
    </diagram>
</mxfile>